<?xml version="1.0" standalone="no"?>
<!DOCTYPE svg PUBLIC "-//W3C//DTD SVG 20010904//EN"
 "http://www.w3.org/TR/2001/REC-SVG-20010904/DTD/svg10.dtd">
<svg version="1.0" xmlns="http://www.w3.org/2000/svg"
 width="512.000000pt" height="512.000000pt" viewBox="0 0 512.000000 512.000000"
 preserveAspectRatio="xMidYMid meet">
<metadata>
Created by potrace 1.16, written by Peter Selinger 2001-2019
</metadata>
<g transform="translate(0.000000,512.000000) scale(0.100000,-0.100000)"
fill="#000000" stroke="none">
<path d="M1774 3526 c-62 -20 -110 -61 -142 -124 -16 -32 -48 -77 -70 -101
-74 -78 -102 -205 -79 -358 7 -51 7 -51 -22 -58 -53 -11 -122 -66 -162 -128
-35 -53 -48 -96 -64 -198 -5 -31 -11 -38 -45 -52 -80 -31 -108 -138 -51 -195
36 -36 65 -42 193 -42 88 0 99 -2 94 -16 -23 -60 -6 -119 37 -129 12 -3 258
-4 547 -3 l525 3 48 28 c27 16 60 46 75 67 l27 39 578 3 579 3 29 33 c35 40
38 83 7 132 -15 25 -22 52 -22 92 -1 49 -5 61 -30 87 -16 17 -38 33 -48 37
-10 3 -28 28 -39 55 -13 30 -41 67 -71 94 -92 82 -207 96 -339 41 -13 -6 -25
8 -52 56 -88 155 -217 265 -376 320 -95 33 -286 32 -381 -1 -211 -74 -361
-245 -420 -478 -10 -38 -14 -43 -40 -43 -22 0 -42 14 -84 55 -32 32 -81 68
-113 83 -50 23 -71 27 -148 27 -76 -1 -99 -5 -147 -27 -92 -43 -219 -175 -204
-214 6 -15 46 -20 46 -6 0 23 105 122 162 153 58 31 70 34 148 34 70 0 93 -4
130 -24 75 -39 128 -101 87 -101 -8 0 -22 -9 -32 -20 -26 -29 -7 -49 30 -32
42 19 135 15 173 -8 60 -37 85 -103 63 -163 -9 -22 -7 -25 18 -30 16 -3 42
-17 58 -31 l30 -25 29 30 c47 50 101 73 169 73 67 0 100 -14 183 -76 57 -44
65 -58 29 -51 -19 4 -26 -2 -37 -27 -20 -47 -48 -78 -93 -103 -42 -22 -44 -22
-562 -22 l-520 0 -3 28 c-3 24 0 27 27 27 44 0 47 16 8 55 l-35 35 -130 0
c-116 0 -132 2 -156 21 -14 11 -26 29 -26 40 0 32 53 79 89 79 29 0 31 3 31
35 0 53 20 135 46 187 33 66 85 112 161 144 l65 28 -9 40 c-4 23 -8 86 -8 141
0 89 3 106 28 157 16 33 45 70 68 88 25 20 39 40 39 54 0 34 40 88 85 113 119
68 275 -21 275 -156 0 -36 3 -40 31 -46 17 -4 58 -33 95 -67 35 -33 64 -57 64
-54 0 23 -56 109 -90 138 -28 24 -44 50 -54 82 -43 142 -169 214 -302 172z
m1051 -431 c127 -33 217 -96 295 -207 74 -105 101 -200 100 -343 -1 -60 2
-109 7 -108 4 1 26 9 48 17 53 20 204 21 250 2 19 -8 47 -33 62 -55 31 -45 63
-54 63 -19 0 29 -36 80 -75 106 -32 22 -112 42 -171 42 -31 0 -33 3 -38 38 -3
20 -12 73 -21 116 -13 73 -13 80 3 92 47 37 163 44 227 15 53 -24 103 -81 117
-136 10 -37 16 -44 43 -49 18 -4 39 -14 47 -24 35 -39 33 -102 -2 -102 -30 0
-75 -44 -67 -64 5 -13 12 -16 25 -11 63 28 106 10 100 -41 -2 -22 -10 -30 -38
-37 -20 -5 -237 -7 -520 -4 l-485 5 -70 69 c-92 91 -157 123 -247 123 -74 0
-122 -15 -176 -56 -42 -33 -52 -25 -69 54 -34 164 11 314 132 436 128 130 299
182 460 141z"/>
<path d="M2624 3479 c3 -34 6 -70 6 -80 0 -11 5 -19 10 -19 11 0 14 118 4 144
-3 9 -11 16 -16 16 -7 0 -9 -22 -4 -61z"/>
<path d="M2777 3523 c-4 -3 -7 -38 -7 -77 0 -87 18 -78 21 11 2 62 -1 79 -14
66z"/>
<path d="M2931 3434 c-21 -72 -22 -99 -2 -78 9 9 41 121 41 143 0 6 -4 11 -8
11 -5 0 -19 -34 -31 -76z"/>
<path d="M2437 3494 c-6 -6 31 -124 44 -138 20 -22 20 7 -1 68 -21 64 -32 81
-43 70z"/>
<path d="M3107 3383 c-41 -72 -49 -91 -37 -98 9 -6 90 124 90 144 0 26 -21 7
-53 -46z"/>
<path d="M2250 3391 c0 -10 88 -121 96 -121 14 0 -1 34 -33 79 -35 46 -63 65
-63 42z"/>
<path d="M3262 3307 c-28 -29 -41 -57 -27 -57 7 0 74 74 75 83 0 15 -17 6 -48
-26z"/>
<path d="M3343 3177 c-39 -29 -55 -57 -35 -57 13 0 102 71 102 81 0 17 -25 8
-67 -24z"/>
<path d="M3438 3028 c-34 -12 -58 -26 -58 -34 0 -18 5 -18 63 4 91 35 87 61
-5 30z"/>
<path d="M2443 2081 c-23 -11 -49 -30 -57 -44 -22 -32 -83 -51 -103 -31 -12
12 -82 14 -434 14 -271 0 -427 -4 -440 -10 -24 -13 -25 -36 -1 -48 9 -5 197
-9 417 -10 220 -1 404 -2 409 -2 5 0 3 -7 -4 -15 -7 -8 -18 -31 -25 -51 -10
-29 -20 -39 -51 -50 -86 -29 -110 -122 -47 -180 25 -23 30 -24 192 -24 91 0
172 4 180 9 10 7 23 3 39 -9 13 -11 38 -22 56 -25 22 -5 36 -15 44 -34 24 -55
89 -66 133 -22 34 34 37 64 10 108 -27 43 -11 61 54 65 42 3 50 6 50 23 0 18
-8 20 -76 23 l-76 3 -9 -33 c-11 -39 -64 -78 -106 -78 -34 0 -98 56 -98 85 0
10 -6 15 -17 13 -14 -3 -17 -12 -15 -36 l2 -32 -166 2 c-164 3 -167 3 -175 26
-12 33 28 72 74 72 33 0 35 2 41 44 12 76 77 134 138 122 25 -5 30 -2 39 23
26 74 140 89 199 26 17 -19 27 -22 41 -15 53 29 127 -16 138 -86 6 -36 9 -39
46 -46 22 -3 61 -12 86 -18 25 -6 81 -10 125 -8 77 3 79 4 79 28 0 25 -1 25
-110 31 -143 7 -159 13 -187 69 -29 57 -78 90 -132 90 -24 0 -62 11 -90 25
-59 30 -115 32 -173 6z m275 -468 c-2 -20 -9 -29 -26 -31 -30 -4 -41 24 -16
43 30 23 46 18 42 -12z"/>
<path d="M3024 1995 c-16 -40 0 -45 134 -45 135 0 160 8 146 44 -9 23 -271 24
-280 1z"/>
<path d="M3207 1883 c-13 -12 -7 -41 9 -47 9 -3 57 -6 109 -6 96 0 124 11 111
45 -4 12 -26 15 -114 15 -60 0 -112 -3 -115 -7z"/>
</g>
</svg>